Coordinates
version=1
nRows=8
nColumns=40
inDegrees=yes

Units are S.I. units (second, meters, Newtons, ...)
Angles are in degrees.

endheader
time	pelvis_tilt	pelvis_list	pelvis_rotation	pelvis_tx	pelvis_ty	pelvis_tz	hip_flexion_r	hip_adduction_r	hip_rotation_r	knee_angle_r	knee_angle_r_beta	ankle_angle_r	subtalar_angle_r	mtp_angle_r	hip_flexion_l	hip_adduction_l	hip_rotation_l	knee_angle_l	knee_angle_l_beta	ankle_angle_l	subtalar_angle_l	mtp_angle_l	lumbar_extension	lumbar_bending	lumbar_rotation	arm_flex_r	arm_add_r	arm_rot_r	elbow_flex_r	pro_sup_r	wrist_flex_r	wrist_dev_r	arm_flex_l	arm_add_l	arm_rot_l	elbow_flex_l	pro_sup_l	wrist_flex_l	wrist_dev_l
     24.40000000	     -3.43697196	     -5.25731995	     -1.73881205	      0.94926961	      0.89733069	      0.39542060	     17.87960092	     -7.69087005	     -4.12463130	     63.58702351	     63.58702351	      3.26539889	    -18.53952386	      3.98864017	     22.69668530	     -0.77439263	      2.73449372	     42.27336499	     42.27336499	     25.26038048	    -18.83920553	     11.55448571	    -11.01585837	      7.26949283	      4.08045739	     25.39195419	    -10.50252216	     -7.71656543	     29.59919541	     45.90492791	      0.00000000	      0.00000000	     19.92856537	    -10.44960935	      5.60623480	     39.04221896	     45.76624406	      0.00000000	      0.00000000
     24.41878571	     -3.25087924	     -4.90270430	     -2.18802457	      0.94881626	      0.89820105	      0.39320516	     19.31706483	     -8.26292146	     -4.31166890	     65.08828930	     65.08828930	      3.74028420	    -18.82154984	      4.39682701	     21.77663261	     -0.37040788	      2.14787795	     41.74610937	     41.74610937	     25.46110541	    -18.79247002	     11.62709796	    -10.92329121	      7.37317231	      3.40881040	     21.91181562	    -11.11190073	     -7.88355716	     28.39173032	     45.94474587	      0.00000000	      0.00000000	     20.75617936	    -10.79862319	      5.30358954	     40.23007974	     45.82261220	      0.00000000	      0.00000000
     24.43757143	     -2.99805808	     -4.76360772	     -2.64656828	      0.94836249	      0.89942038	      0.39127641	     20.72284253	     -8.34836821	     -4.28351903	     66.49306011	     66.49306011	      5.40880406	    -18.89589986	      8.71900842	     20.75875865	     -0.22630650	      1.57365812	     41.18620434	     41.18620434	     25.52782813	    -18.71081841	     11.27299206	    -11.05796228	      7.71201416	      2.90187106	     17.83779809	    -11.95665133	     -8.46184762	     28.57880020	     45.97127897	      0.00000000	      0.00000000	     20.93905059	    -11.39011277	      4.64219612	     43.76539542	     45.95692650	      0.00000000	      0.00000000
     24.45635714	     -2.76919997	     -4.52072153	     -3.14673604	      0.94785937	      0.90097578	      0.38946175	     21.98101160	     -8.57306373	     -4.24485326	     67.30333049	     67.30333049	      6.00211013	    -18.99991650	      9.26538996	     19.67346523	      0.04431214	      0.97293814	     40.42586694	     40.42586694	     25.55735196	    -18.66043076	     11.23698329	    -11.09572179	      7.93075753	      2.55774394	     14.19328199	    -12.90693661	     -8.67042204	     27.28162054	     46.01968778	      0.00000000	      0.00000000	     21.95554461	    -11.70618399	      4.27897018	     45.19330450	     46.02704306	      0.00000000	      0.00000000
     24.47514286	     -2.55714752	     -4.32222687	     -3.66025073	      0.94732423	      0.90295413	      0.38800777	     23.13339009	     -8.58461684	     -4.04952486	     67.61182698	     67.61182698	      6.68691222	    -19.03788639	     10.00358986	     18.51219035	      0.25425808	      0.37011047	     39.46745411	     39.46745411	     25.48174088	    -18.56859078	     11.14753039	    -11.15656738	      8.18955325	      2.29855675	     10.46102612	    -13.84771533	     -9.03102072	     26.32451527	     46.06436802	      0.00000000	      0.00000000	     22.86431970	    -12.08242858	      3.81116406	     47.09062538	     46.10987553	      0.00000000	      0.00000000
     24.49392857	     -2.41723155	     -4.27089287	     -4.17147149	      0.94670866	      0.90528184	      0.38706853	     24.21598808	     -8.24210188	     -3.73457741	     67.37887704	     67.37887704	      7.68036472	    -18.99810543	     11.68469627	     17.35589103	      0.26328508	     -0.22719212	     38.34433141	     38.34433141	     25.11340505	    -18.46760628	     10.42834546	    -11.22584214	      8.59607906	      1.76977518	      6.38840649	    -14.55742817	    -10.32838625	     27.23765551	     46.11200397	      0.00000000	      0.00000000	     22.95505223	    -12.84100088	      2.96461380	     50.67724398	     46.26025445	      0.00000000	      0.00000000
     24.51271429	     -2.25707706	     -4.16827664	     -4.73121371	      0.94600767	      0.90817586	      0.38654000	     25.05551693	     -7.88815365	     -3.31641816	     66.41985196	     66.41985196	      8.17759320	    -18.89274739	     11.54245364	     16.04504862	      0.34790694	     -0.80421836	     36.94743079	     36.94743079	     24.88437363	    -18.34972217	     10.58733077	    -11.25955855	      8.88572349	      1.54211327	      3.00473079	    -15.33845381	    -10.73801491	     26.21942437	     46.16485146	      0.00000000	      0.00000000	     23.93141188	    -13.28910631	      2.43717065	     52.28069558	     46.34245256	      0.00000000	      0.00000000
     24.53150000	     -2.21685862	     -4.16454197	     -5.30640430	      0.94517007	      0.91117388	      0.38654371	     25.79071441	     -7.35826744	     -2.88815107	     64.78500637	     64.78500637	      8.37528670	    -18.76701737	     10.33728069	     14.80287384	      0.26783985	     -1.44177737	     35.40885858	     35.40885858	     24.32999195	    -18.18160974	      9.96686629	    -11.27918894	      9.26288337	      1.15104648	     -0.77854335	    -15.83278215	    -12.67923531	     27.23686034	     46.25864555	      0.00000000	      0.00000000	     23.95016465	    -14.00485426	      1.19026074	     56.14969835	     46.53122168	      0.00000000	      0.00000000
